<?xml version="1.0" standalone="no"?>
<!DOCTYPE svg PUBLIC "-//W3C//DTD SVG 20010904//EN"
 "http://www.w3.org/TR/2001/REC-SVG-20010904/DTD/svg10.dtd">
<svg version="1.0" xmlns="http://www.w3.org/2000/svg"
 width="1000.000000pt" height="989.000000pt" viewBox="0 0 1000.000000 989.000000"
 preserveAspectRatio="xMidYMid meet">

<g transform="translate(0.000000,989.000000) scale(0.100000,-0.100000)"
fill="#000000" stroke="none">
<path d="M5655 7340 c-27 -11 -61 -49 -74 -83 -6 -16 -11 -98 -11 -182 l0
-155 -733 -2 -734 -3 -40 -28 c-22 -15 -49 -47 -61 -71 -22 -43 -22 -47 -22
-663 l0 -620 328 -278 c180 -152 327 -280 327 -284 0 -4 -133 -119 -294 -257
-162 -137 -327 -279 -367 -316 -39 -36 -81 -71 -93 -77 -11 -7 -21 -16 -21
-21 0 -10 12 -2 76 54 19 15 34 26 34 25 0 -2 1 -292 3 -644 1 -467 5 -647 14
-666 6 -15 26 -43 43 -63 27 -30 29 -37 16 -42 -16 -6 -13 -24 5 -24 6 0 8 4
4 9 -11 19 16 22 61 6 39 -13 136 -15 732 -15 378 0 692 0 697 -1 6 -1 13 -1
18 0 4 0 7 -65 7 -145 0 -86 4 -154 11 -166 9 -16 8 -19 -3 -14 -7 4 2 -5 20
-20 30 -25 31 -28 15 -41 -10 -8 -11 -11 -3 -7 7 4 31 7 53 5 22 -1 95 15 173
39 75 22 141 37 147 34 7 -4 9 -3 4 1 -9 10 184 75 230 77 17 1 30 6 27 10 -5
7 1 9 39 12 6 1 14 3 17 6 10 11 212 70 221 64 5 -3 9 0 9 6 0 7 8 9 21 5 15
-5 19 -4 15 4 -7 10 -2 12 37 15 6 1 14 3 17 6 10 11 212 70 221 64 5 -3 9 -1
9 4 0 13 145 53 167 46 12 -4 14 -3 5 3 -9 7 -2 13 24 21 20 6 41 9 47 8 7 -2
8 -1 4 2 -11 6 35 38 48 34 6 -2 7 0 3 3 -4 4 -1 17 7 29 13 18 15 266 15
1904 l0 1884 -38 38 c-42 43 -15 33 -842 290 -562 174 -570 177 -595 183 -11
3 -29 2 -40 -3z"/>
<path d="M8977 4693 c-3 -43 -2 -81 2 -85 3 -4 7 31 9 78 2 46 2 84 -1 84 -2
0 -7 -35 -10 -77z"/>
<path d="M8973 4535 c0 -27 2 -38 4 -22 2 15 2 37 0 50 -2 12 -4 0 -4 -28z"/>
<path d="M2922 4483 l687 -3 4 -148 3 -147 2 153 2 152 -692 -2 -693 -3 687
-2z"/>
<path d="M8962 4425 c0 -16 2 -22 5 -12 2 9 2 23 0 30 -3 6 -5 -1 -5 -18z"/>
<path d="M8951 4370 c0 -14 -4 -36 -7 -50 -5 -22 -4 -23 6 -7 6 9 9 32 7 50
-3 25 -4 26 -6 7z"/>
<path d="M3950 4339 c0 -5 5 -7 10 -4 6 3 10 8 10 11 0 2 -4 4 -10 4 -5 0 -10
-5 -10 -11z"/>
<path d="M3826 4271 c-10 -10 -14 -21 -9 -24 5 -3 13 6 20 19 13 29 11 30 -11
5z"/>
<path d="M8941 4274 c0 -11 3 -14 6 -6 3 7 2 16 -1 19 -3 4 -6 -2 -5 -13z"/>
<path d="M3769 4223 c-13 -15 -12 -15 9 -4 23 12 28 21 13 21 -5 0 -15 -7 -22
-17z"/>
<path d="M3693 4160 c-23 -22 -40 -40 -36 -40 3 0 25 18 49 40 24 22 40 40 36
40 -4 0 -26 -18 -49 -40z"/>
<path d="M8916 4153 c-17 -97 -39 -192 -45 -189 -3 2 -7 -17 -7 -42 -1 -46 -1
-46 17 23 24 92 52 236 46 241 -3 3 -8 -12 -11 -33z"/>
<path d="M3612 4145 c0 -16 2 -22 5 -12 2 9 2 23 0 30 -3 6 -5 -1 -5 -18z"/>
<path d="M8830 3890 c-9 -6 -10 -10 -3 -10 6 0 15 5 18 10 8 12 4 12 -15 0z"/>
<path d="M8844 3853 c0 -10 -4 -34 -7 -53 -5 -23 -4 -28 2 -15 14 34 23 85 14
85 -5 0 -9 -8 -9 -17z"/>
<path d="M8800 3771 c0 -5 5 -13 10 -16 6 -3 8 -18 5 -33 l-5 -27 11 27 c8 22
7 31 -5 44 -9 8 -16 11 -16 5z"/>
<path d="M8796 3675 c-3 -9 -6 -22 -5 -28 0 -7 5 -1 10 12 5 13 8 26 5 28 -2
2 -6 -3 -10 -12z"/>
<path d="M8776 3615 c-9 -26 -7 -32 5 -12 6 10 9 21 6 23 -2 3 -7 -2 -11 -11z"/>
<path d="M8756 3567 c3 -10 9 -15 12 -12 3 3 0 11 -7 18 -10 9 -11 8 -5 -6z"/>
<path d="M8736 3503 c-6 -14 -5 -15 5 -6 7 7 10 15 7 18 -3 3 -9 -2 -12 -12z"/>
<path d="M8725 3469 c-4 -6 -5 -12 -2 -15 2 -3 7 2 10 11 7 17 1 20 -8 4z"/>
<path d="M8673 3340 c-3 -11 -9 -17 -14 -14 -5 3 -6 -2 -3 -10 8 -22 11 -20
23 14 5 17 8 30 5 30 -3 0 -8 -9 -11 -20z"/>
<path d="M8635 3251 c-3 -12 -9 -19 -13 -17 -4 2 -8 -8 -9 -22 -1 -24 1 -23
19 11 11 22 17 41 15 44 -3 2 -8 -5 -12 -16z"/>
<path d="M7183 3130 c0 -25 2 -35 4 -22 2 12 2 32 0 45 -2 12 -4 2 -4 -23z"/>
<path d="M8556 3083 c-6 -14 -5 -15 5 -6 7 7 10 15 7 18 -3 3 -9 -2 -12 -12z"/>
<path d="M8535 3049 c-4 -6 -5 -12 -2 -15 2 -3 7 2 10 11 7 17 1 20 -8 4z"/>
<path d="M8514 3005 c-4 -8 -11 -12 -16 -9 -6 4 -8 1 -6 -7 3 -8 1 -22 -4 -31
-5 -10 -6 -18 -4 -18 3 0 15 18 26 40 11 22 18 40 15 40 -3 0 -8 -7 -11 -15z"/>
<path d="M8440 2901 c-7 -14 -7 -22 2 -27 7 -4 8 -3 4 4 -4 7 -3 12 2 12 5 0
9 7 9 15 0 20 -4 19 -17 -4z"/>
<path d="M6877 2879 c7 -7 15 -10 18 -7 3 3 -2 9 -12 12 -14 6 -15 5 -6 -5z"/>
<path d="M8384 2788 l-19 -23 23 19 c12 11 22 21 22 23 0 8 -8 2 -26 -19z"/>
<path d="M8343 2769 c3 -9 -1 -26 -9 -37 -12 -18 -12 -20 1 -18 9 1 23 13 32
26 9 13 11 20 5 16 -6 -3 -16 2 -22 11 -9 15 -11 15 -7 2z"/>
<path d="M5551 2664 c0 -11 3 -14 6 -6 3 7 2 16 -1 19 -3 4 -6 -2 -5 -13z"/>
<path d="M8303 2665 c0 -8 4 -12 9 -9 5 3 6 10 3 15 -9 13 -12 11 -12 -6z"/>
<path d="M8226 2548 c-37 -51 -54 -79 -39 -61 33 37 116 153 109 153 -2 0 -34
-42 -70 -92z"/>
<path d="M8131 2426 c-6 -14 -15 -26 -20 -26 -5 0 -12 -8 -15 -17 -6 -14 -4
-14 14 2 26 23 44 55 36 62 -3 3 -10 -6 -15 -21z"/>
<path d="M8069 2366 c-1 -3 -2 -11 -3 -17 0 -6 -10 -17 -20 -25 -11 -8 -16
-14 -11 -14 5 0 -2 -11 -15 -25 -12 -13 -28 -21 -34 -17 -14 8 -52 14 -44 6 3
-3 12 -6 20 -8 7 -1 18 -5 24 -8 6 -4 22 5 35 20 65 73 70 80 60 87 -6 3 -12
4 -12 1z"/>
<path d="M7955 2230 c-3 -5 -3 -10 1 -10 4 0 -1 -9 -11 -20 -13 -15 -21 -17
-31 -9 -9 7 -18 7 -31 0 -12 -7 -13 -10 -4 -11 11 0 11 -3 0 -17 -13 -16 -12
-17 3 -4 10 7 15 17 12 22 -6 10 9 12 19 2 10 -10 -34 -53 -47 -46 -6 3 -8 3
-4 -2 4 -4 2 -17 -4 -28 -6 -11 18 10 53 47 35 38 66 72 67 77 5 12 -15 11
-23 -1z"/>
<path d="M7761 2104 c0 -11 3 -14 6 -6 3 7 2 16 -1 19 -3 4 -6 -2 -5 -13z"/>
<path d="M7821 2101 c-7 -5 -10 -14 -6 -21 6 -9 3 -9 -12 -2 -17 9 -19 7 -19
-16 1 -15 -4 -27 -11 -27 -7 0 -13 -4 -12 -8 2 -15 -54 -67 -64 -60 -6 3 -7 1
-3 -5 6 -10 -10 -27 -28 -27 -5 0 -11 -6 -14 -14 -8 -24 15 -7 98 73 45 43 83
87 85 97 4 22 5 22 -14 10z"/>
<path d="M7613 1949 c-1 -10 6 -23 15 -30 14 -11 15 -11 5 1 -17 18 -16 33 0
27 8 -3 14 0 14 7 0 19 -33 14 -34 -5z"/>
<path d="M7610 1875 c-13 -14 -26 -23 -28 -20 -3 3 -11 -4 -19 -15 -8 -11 -20
-17 -31 -14 -13 5 -14 4 -3 -4 11 -8 11 -10 0 -14 -8 -3 -12 -8 -9 -11 3 -3
32 19 65 48 33 30 57 54 54 55 -3 0 -16 -11 -29 -25z"/>
<path d="M7490 1779 c0 -5 -4 -8 -8 -5 -5 3 -9 -1 -9 -9 0 -13 4 -12 19 2 21
18 22 23 8 23 -5 0 -10 -5 -10 -11z"/>
<path d="M7410 1721 c0 -13 -99 -83 -109 -77 -4 3 -8 -1 -8 -9 0 -16 4 -14 74
37 54 39 71 58 54 58 -6 0 -11 -4 -11 -9z"/>
<path d="M7235 1590 c-4 -6 -10 -8 -15 -5 -4 3 -11 -2 -14 -11 -3 -8 -11 -12
-17 -8 -8 4 -9 3 -5 -5 5 -8 16 -5 39 11 43 29 42 28 29 28 -6 0 -14 -5 -17
-10z"/>
<path d="M7149 1558 c-9 -30 -6 -37 12 -28 23 13 25 22 2 13 -11 -4 -14 -3 -9
5 4 7 5 12 2 12 -3 0 -6 -1 -7 -2z"/>
<path d="M7094 1498 l-19 -23 25 20 c14 11 27 21 29 22 2 2 0 3 -6 3 -5 0 -18
-10 -29 -22z"/>
<path d="M7033 1463 c0 -8 6 -9 19 -2 10 5 18 11 18 12 0 2 -8 3 -18 3 -10 0
-19 -6 -19 -13z"/>
<path d="M7000 1441 c-8 -6 -18 -7 -24 -4 -5 3 -6 1 -2 -5 5 -9 13 -9 27 -2
10 6 19 13 19 15 0 7 -3 6 -20 -4z"/>
<path d="M6925 1400 c-3 -5 -13 -6 -23 -3 -9 3 -14 3 -10 -2 4 -4 0 -14 -10
-22 -13 -10 -9 -10 13 1 44 22 62 36 48 36 -6 0 -14 -4 -18 -10z"/>
<path d="M6835 1350 c-3 -6 1 -7 9 -4 18 7 21 14 7 14 -6 0 -13 -4 -16 -10z"/>
<path d="M6660 1266 c4 -4 16 -4 26 2 16 9 14 10 -8 9 -15 -1 -23 -6 -18 -11z"/>
<path d="M6600 1240 c-8 -5 -10 -10 -5 -10 6 0 17 5 25 10 8 5 11 10 5 10 -5
0 -17 -5 -25 -10z"/>
<path d="M6508 1223 c7 -3 16 -2 19 1 4 3 -2 6 -13 5 -11 0 -14 -3 -6 -6z"/>
<path d="M6524 1204 c-18 -14 -18 -14 6 -3 31 14 36 19 24 19 -6 0 -19 -7 -30
-16z"/>
<path d="M6325 1130 c-13 -6 -15 -9 -5 -9 8 0 22 4 30 9 18 12 2 12 -25 0z"/>
<path d="M6212 1093 c-24 -8 -41 -17 -39 -19 4 -5 97 26 97 32 0 6 -11 4 -58
-13z"/>
<path d="M6140 1070 c-9 -6 -10 -10 -3 -10 6 0 15 5 18 10 8 12 4 12 -15 0z"/>
<path d="M6089 1055 c-3 -2 -21 -6 -39 -9 -19 -2 -50 -10 -68 -16 -18 -7 -39
-9 -47 -6 -9 3 -15 0 -15 -8 0 -11 21 -9 97 11 97 24 121 33 91 33 -8 0 -17
-2 -19 -5z"/>
<path d="M5845 994 l-50 -14 44 5 c24 3 51 10 60 15 21 12 7 11 -54 -6z"/>
</g>
</svg>
